<svg xmlns="http://www.w3.org/2000/svg" xmlns:xlink="http://www.w3.org/1999/xlink" width="500" zoomAndPan="magnify" viewBox="0 0 375 374.999991" height="500" preserveAspectRatio="xMidYMid meet" version="1.0"><defs><g/><clipPath id="616f7c3dd8"><path d="M 246.445312 144 L 311.695312 144 L 311.695312 229.5 L 246.445312 229.5 Z M 246.445312 144 " clip-rule="nonzero"/></clipPath></defs><g clip-path="url(#616f7c3dd8)"><path fill="#ffffff" d="M 291.933594 163.71875 C 295.199219 167 297.21875 171.542969 297.21875 176.5625 C 297.21875 180.125 296.199219 183.449219 294.441406 186.253906 L 304.777344 196.617188 L 305.390625 195.695312 C 309.300781 190.324219 311.605469 183.707031 311.605469 176.5625 C 311.605469 167.589844 307.96875 159.457031 302.09375 153.566406 L 302.066406 153.539062 C 296.1875 147.644531 288.074219 144 279.125 144 C 270.175781 144 262.0625 147.644531 256.183594 153.539062 L 256.15625 153.566406 L 255.882812 153.84375 C 250.085938 159.867188 246.917969 167.363281 246.652344 175.726562 C 246.515625 182.96875 248.589844 189.828125 252.859375 195.695312 L 253.472656 196.617188 L 257.992188 203.410156 L 258.125 203.605469 L 270.503906 222.199219 L 273.277344 226.367188 C 274.621094 228.386719 276.703125 229.5 279.125 229.5 C 281.546875 229.5 283.625 228.386719 284.96875 226.367188 L 300.125 203.605469 L 300.257812 203.410156 L 288.789062 191.914062 C 285.996094 193.679688 282.679688 194.699219 279.125 194.699219 C 274.117188 194.699219 269.585938 192.675781 266.316406 189.402344 C 263.050781 186.125 261.03125 181.582031 261.03125 176.5625 C 261.03125 171.542969 263.050781 167 266.316406 163.71875 C 269.585938 160.449219 274.117188 158.425781 279.125 158.425781 C 284.132812 158.425781 288.664062 160.449219 291.933594 163.71875 Z M 290.632812 169.296875 C 291.164062 170.144531 291.609375 171.066406 291.949219 172.035156 C 292.3125 173.074219 291.761719 174.214844 290.722656 174.578125 C 289.6875 174.941406 288.550781 174.390625 288.1875 173.347656 C 287.953125 172.671875 287.636719 172.027344 287.261719 171.425781 C 286.878906 170.816406 286.429688 170.25 285.933594 169.746094 C 285.046875 168.859375 283.984375 168.144531 282.8125 167.660156 C 281.6875 167.195312 280.445312 166.9375 279.125 166.9375 C 278.023438 166.9375 277.125 166.039062 277.125 164.933594 C 277.125 163.832031 278.023438 162.933594 279.125 162.933594 C 280.953125 162.933594 282.714844 163.304688 284.324219 163.96875 C 285.980469 164.652344 287.472656 165.648438 288.710938 166.886719 L 288.742188 166.914062 L 288.75 166.921875 C 289.460938 167.636719 290.097656 168.4375 290.632812 169.296875 Z M 290.632812 169.296875 " fill-opacity="1" fill-rule="evenodd"/></g><g fill="#ffffff" fill-opacity="1"><g transform="translate(61.618104, 176.958301)"><g><path d="M 24.515625 -29.375 C 25.210938 -29.375 25.816406 -29.132812 26.328125 -28.65625 C 26.847656 -28.1875 27.109375 -27.617188 27.109375 -26.953125 C 27.109375 -26.585938 27.023438 -26.207031 26.859375 -25.8125 L 16.53125 -1.625 C 16.28125 -1.101562 15.929688 -0.703125 15.484375 -0.421875 C 15.035156 -0.140625 14.5625 0 14.0625 0 C 13.582031 -0.03125 13.140625 -0.175781 12.734375 -0.4375 C 12.335938 -0.707031 12.023438 -1.09375 11.796875 -1.59375 L 1.46875 -25.859375 C 1.320312 -26.140625 1.25 -26.488281 1.25 -26.90625 C 1.25 -27.65625 1.523438 -28.257812 2.078125 -28.71875 C 2.640625 -29.1875 3.21875 -29.421875 3.8125 -29.421875 C 4.28125 -29.421875 4.722656 -29.28125 5.140625 -29 C 5.566406 -28.71875 5.890625 -28.3125 6.109375 -27.78125 L 14.515625 -7.984375 L 22.21875 -27.78125 C 22.4375 -28.28125 22.753906 -28.671875 23.171875 -28.953125 C 23.597656 -29.234375 24.046875 -29.375 24.515625 -29.375 Z M 24.515625 -29.375 "/></g></g></g><g fill="#ffffff" fill-opacity="1"><g transform="translate(89.980805, 176.958301)"><g><path d="M 20.84375 -22.8125 C 21.5625 -22.8125 22.15625 -22.570312 22.625 -22.09375 C 23.101562 -21.613281 23.34375 -21 23.34375 -20.25 L 23.34375 -2.546875 C 23.34375 -1.828125 23.101562 -1.222656 22.625 -0.734375 C 22.15625 -0.242188 21.5625 0 20.84375 0 C 20.113281 0 19.519531 -0.234375 19.0625 -0.703125 C 18.601562 -1.179688 18.359375 -1.785156 18.328125 -2.515625 C 17.628906 -1.703125 16.6875 -1.007812 15.5 -0.4375 C 14.3125 0.132812 13.066406 0.421875 11.765625 0.421875 C 9.835938 0.421875 8.09375 -0.0703125 6.53125 -1.0625 C 4.96875 -2.050781 3.734375 -3.425781 2.828125 -5.1875 C 1.921875 -6.945312 1.46875 -8.941406 1.46875 -11.171875 C 1.46875 -13.398438 1.910156 -15.398438 2.796875 -17.171875 C 3.691406 -18.941406 4.910156 -20.320312 6.453125 -21.3125 C 8.003906 -22.3125 9.71875 -22.8125 11.59375 -22.8125 C 12.925781 -22.8125 14.175781 -22.566406 15.34375 -22.078125 C 16.519531 -21.585938 17.515625 -20.960938 18.328125 -20.203125 L 18.328125 -20.25 C 18.328125 -20.976562 18.5625 -21.585938 19.03125 -22.078125 C 19.507812 -22.566406 20.113281 -22.8125 20.84375 -22.8125 Z M 12.390625 -4.1875 C 14.203125 -4.1875 15.675781 -4.847656 16.8125 -6.171875 C 17.957031 -7.492188 18.53125 -9.160156 18.53125 -11.171875 C 18.53125 -13.179688 17.957031 -14.851562 16.8125 -16.1875 C 15.675781 -17.53125 14.203125 -18.203125 12.390625 -18.203125 C 10.597656 -18.203125 9.128906 -17.53125 7.984375 -16.1875 C 6.847656 -14.851562 6.28125 -13.179688 6.28125 -11.171875 C 6.28125 -9.160156 6.84375 -7.492188 7.96875 -6.171875 C 9.101562 -4.847656 10.578125 -4.1875 12.390625 -4.1875 Z M 12.390625 -4.1875 "/></g></g></g><g fill="#ffffff" fill-opacity="1"><g transform="translate(116.042692, 176.958301)"><g><path d="M 21.34375 -4.390625 C 21.875 -3.835938 22.140625 -3.210938 22.140625 -2.515625 C 22.140625 -1.816406 21.863281 -1.226562 21.3125 -0.75 C 20.769531 -0.28125 20.191406 -0.046875 19.578125 -0.046875 C 18.859375 -0.046875 18.242188 -0.320312 17.734375 -0.875 L 10.203125 -8.828125 L 8.15625 -6.953125 L 8.15625 -2.546875 C 8.15625 -1.828125 7.914062 -1.222656 7.4375 -0.734375 C 6.96875 -0.242188 6.375 0 5.65625 0 C 4.925781 0 4.320312 -0.242188 3.84375 -0.734375 C 3.375 -1.222656 3.140625 -1.828125 3.140625 -2.546875 L 3.140625 -28.40625 C 3.140625 -29.132812 3.375 -29.742188 3.84375 -30.234375 C 4.320312 -30.722656 4.925781 -30.96875 5.65625 -30.96875 C 6.375 -30.96875 6.96875 -30.722656 7.4375 -30.234375 C 7.914062 -29.742188 8.15625 -29.132812 8.15625 -28.40625 L 8.15625 -12.9375 L 17.109375 -21.59375 C 17.640625 -22.125 18.253906 -22.390625 18.953125 -22.390625 C 19.566406 -22.390625 20.117188 -22.128906 20.609375 -21.609375 C 21.097656 -21.097656 21.34375 -20.578125 21.34375 -20.046875 C 21.34375 -19.367188 21.007812 -18.738281 20.34375 -18.15625 L 14.015625 -12.34375 Z M 21.34375 -4.390625 "/></g></g></g><g fill="#ffffff" fill-opacity="1"><g transform="translate(139.845613, 176.958301)"><g><path d="M 20.84375 -22.8125 C 21.5625 -22.8125 22.15625 -22.570312 22.625 -22.09375 C 23.101562 -21.613281 23.34375 -21 23.34375 -20.25 L 23.34375 -2.546875 C 23.34375 -1.828125 23.101562 -1.222656 22.625 -0.734375 C 22.15625 -0.242188 21.5625 0 20.84375 0 C 20.113281 0 19.519531 -0.234375 19.0625 -0.703125 C 18.601562 -1.179688 18.359375 -1.785156 18.328125 -2.515625 C 17.628906 -1.703125 16.6875 -1.007812 15.5 -0.4375 C 14.3125 0.132812 13.066406 0.421875 11.765625 0.421875 C 9.835938 0.421875 8.09375 -0.0703125 6.53125 -1.0625 C 4.96875 -2.050781 3.734375 -3.425781 2.828125 -5.1875 C 1.921875 -6.945312 1.46875 -8.941406 1.46875 -11.171875 C 1.46875 -13.398438 1.910156 -15.398438 2.796875 -17.171875 C 3.691406 -18.941406 4.910156 -20.320312 6.453125 -21.3125 C 8.003906 -22.3125 9.71875 -22.8125 11.59375 -22.8125 C 12.925781 -22.8125 14.175781 -22.566406 15.34375 -22.078125 C 16.519531 -21.585938 17.515625 -20.960938 18.328125 -20.203125 L 18.328125 -20.25 C 18.328125 -20.976562 18.5625 -21.585938 19.03125 -22.078125 C 19.507812 -22.566406 20.113281 -22.8125 20.84375 -22.8125 Z M 12.390625 -4.1875 C 14.203125 -4.1875 15.675781 -4.847656 16.8125 -6.171875 C 17.957031 -7.492188 18.53125 -9.160156 18.53125 -11.171875 C 18.53125 -13.179688 17.957031 -14.851562 16.8125 -16.1875 C 15.675781 -17.53125 14.203125 -18.203125 12.390625 -18.203125 C 10.597656 -18.203125 9.128906 -17.53125 7.984375 -16.1875 C 6.847656 -14.851562 6.28125 -13.179688 6.28125 -11.171875 C 6.28125 -9.160156 6.84375 -7.492188 7.96875 -6.171875 C 9.101562 -4.847656 10.578125 -4.1875 12.390625 -4.1875 Z M 12.390625 -4.1875 "/></g></g></g><g fill="#ffffff" fill-opacity="1"><g transform="translate(165.9075, 176.958301)"><g><path d="M 14.6875 -22.8125 C 17.53125 -22.8125 19.492188 -21.960938 20.578125 -20.265625 C 21.671875 -18.578125 22.21875 -16.242188 22.21875 -13.265625 L 22.21875 -2.546875 C 22.21875 -1.828125 21.976562 -1.222656 21.5 -0.734375 C 21.03125 -0.242188 20.429688 0 19.703125 0 C 18.984375 0 18.382812 -0.242188 17.90625 -0.734375 C 17.4375 -1.222656 17.203125 -1.828125 17.203125 -2.546875 L 17.203125 -13.265625 C 17.203125 -14.796875 16.878906 -16 16.234375 -16.875 C 15.585938 -17.757812 14.488281 -18.203125 12.9375 -18.203125 C 11.3125 -18.203125 10.035156 -17.734375 9.109375 -16.796875 C 8.191406 -15.867188 7.734375 -14.691406 7.734375 -13.265625 L 7.734375 -2.546875 C 7.734375 -1.828125 7.492188 -1.222656 7.015625 -0.734375 C 6.546875 -0.242188 5.953125 0 5.234375 0 C 4.503906 0 3.898438 -0.242188 3.421875 -0.734375 C 2.953125 -1.222656 2.71875 -1.828125 2.71875 -2.546875 L 2.71875 -19.828125 C 2.71875 -20.554688 2.953125 -21.164062 3.421875 -21.65625 C 3.898438 -22.144531 4.503906 -22.390625 5.234375 -22.390625 C 5.953125 -22.390625 6.546875 -22.144531 7.015625 -21.65625 C 7.492188 -21.164062 7.734375 -20.554688 7.734375 -19.828125 L 7.734375 -19.125 C 8.492188 -20.125 9.476562 -20.988281 10.6875 -21.71875 C 11.90625 -22.445312 13.238281 -22.8125 14.6875 -22.8125 Z M 14.6875 -22.8125 "/></g></g></g><g fill="#ffffff" fill-opacity="1"><g transform="translate(190.839913, 176.958301)"><g><path d="M 13.515625 -4.734375 C 13.898438 -4.734375 14.253906 -4.539062 14.578125 -4.15625 C 14.898438 -3.78125 15.0625 -3.285156 15.0625 -2.671875 C 15.0625 -1.921875 14.648438 -1.285156 13.828125 -0.765625 C 13.003906 -0.253906 12.078125 0 11.046875 0 C 9.316406 0 7.859375 -0.367188 6.671875 -1.109375 C 5.484375 -1.847656 4.890625 -3.414062 4.890625 -5.8125 L 4.890625 -17.359375 L 2.96875 -17.359375 C 2.300781 -17.359375 1.742188 -17.582031 1.296875 -18.03125 C 0.847656 -18.476562 0.625 -19.035156 0.625 -19.703125 C 0.625 -20.347656 0.847656 -20.882812 1.296875 -21.3125 C 1.742188 -21.75 2.300781 -21.96875 2.96875 -21.96875 L 4.890625 -21.96875 L 4.890625 -24.640625 C 4.890625 -25.367188 5.132812 -25.976562 5.625 -26.46875 C 6.113281 -26.957031 6.722656 -27.203125 7.453125 -27.203125 C 8.148438 -27.203125 8.734375 -26.957031 9.203125 -26.46875 C 9.679688 -25.976562 9.921875 -25.367188 9.921875 -24.640625 L 9.921875 -21.96875 L 12.890625 -21.96875 C 13.554688 -21.96875 14.113281 -21.742188 14.5625 -21.296875 C 15.007812 -20.847656 15.234375 -20.289062 15.234375 -19.625 C 15.234375 -18.976562 15.007812 -18.4375 14.5625 -18 C 14.113281 -17.570312 13.554688 -17.359375 12.890625 -17.359375 L 9.921875 -17.359375 L 9.921875 -6.03125 C 9.921875 -5.4375 10.070312 -5.007812 10.375 -4.75 C 10.6875 -4.488281 11.101562 -4.359375 11.625 -4.359375 C 11.851562 -4.359375 12.160156 -4.410156 12.546875 -4.515625 C 12.890625 -4.660156 13.210938 -4.734375 13.515625 -4.734375 Z M 13.515625 -4.734375 "/></g></g></g><g fill="#ffffff" fill-opacity="1"><g transform="translate(207.949571, 176.958301)"><g><path d="M 7.453125 -2.546875 C 7.453125 -1.828125 7.210938 -1.222656 6.734375 -0.734375 C 6.265625 -0.242188 5.664062 0 4.9375 0 C 4.207031 0 3.601562 -0.242188 3.125 -0.734375 C 2.65625 -1.222656 2.421875 -1.828125 2.421875 -2.546875 L 2.421875 -19.828125 C 2.421875 -20.554688 2.65625 -21.164062 3.125 -21.65625 C 3.601562 -22.144531 4.207031 -22.390625 4.9375 -22.390625 C 5.664062 -22.390625 6.265625 -22.144531 6.734375 -21.65625 C 7.210938 -21.164062 7.453125 -20.554688 7.453125 -19.828125 Z M 4.90625 -25.109375 C 3.957031 -25.109375 3.285156 -25.257812 2.890625 -25.5625 C 2.503906 -25.875 2.3125 -26.421875 2.3125 -27.203125 L 2.3125 -28 C 2.3125 -28.78125 2.519531 -29.320312 2.9375 -29.625 C 3.351562 -29.925781 4.019531 -30.078125 4.9375 -30.078125 C 5.914062 -30.078125 6.597656 -29.925781 6.984375 -29.625 C 7.378906 -29.320312 7.578125 -28.78125 7.578125 -28 L 7.578125 -27.203125 C 7.578125 -26.390625 7.375 -25.835938 6.96875 -25.546875 C 6.5625 -25.253906 5.875 -25.109375 4.90625 -25.109375 Z M 4.90625 -25.109375 "/></g></g></g><g fill="#ffffff" fill-opacity="1"><g transform="translate(217.822128, 176.958301)"><g><path d="M 22.8125 -11.71875 C 22.78125 -11.050781 22.507812 -10.503906 22 -10.078125 C 21.5 -9.660156 20.914062 -9.453125 20.25 -9.453125 L 6.4375 -9.453125 C 6.78125 -7.804688 7.550781 -6.515625 8.75 -5.578125 C 9.945312 -4.648438 11.296875 -4.1875 12.796875 -4.1875 C 13.941406 -4.1875 14.832031 -4.289062 15.46875 -4.5 C 16.113281 -4.707031 16.625 -4.925781 17 -5.15625 C 17.382812 -5.394531 17.644531 -5.5625 17.78125 -5.65625 C 18.28125 -5.90625 18.753906 -6.03125 19.203125 -6.03125 C 19.785156 -6.03125 20.285156 -5.816406 20.703125 -5.390625 C 21.128906 -4.972656 21.34375 -4.488281 21.34375 -3.9375 C 21.34375 -3.175781 20.953125 -2.492188 20.171875 -1.890625 C 19.390625 -1.242188 18.34375 -0.695312 17.03125 -0.25 C 15.71875 0.195312 14.394531 0.421875 13.0625 0.421875 C 10.71875 0.421875 8.671875 -0.0664062 6.921875 -1.046875 C 5.179688 -2.023438 3.835938 -3.367188 2.890625 -5.078125 C 1.941406 -6.796875 1.46875 -8.726562 1.46875 -10.875 C 1.46875 -13.28125 1.96875 -15.390625 2.96875 -17.203125 C 3.976562 -19.015625 5.304688 -20.398438 6.953125 -21.359375 C 8.597656 -22.328125 10.351562 -22.8125 12.21875 -22.8125 C 14.0625 -22.8125 15.796875 -22.304688 17.421875 -21.296875 C 19.054688 -20.296875 20.363281 -18.941406 21.34375 -17.234375 C 22.320312 -15.535156 22.8125 -13.695312 22.8125 -11.71875 Z M 12.21875 -18.203125 C 8.976562 -18.203125 7.066406 -16.679688 6.484375 -13.640625 L 17.453125 -13.640625 L 17.453125 -13.9375 C 17.335938 -15.101562 16.765625 -16.101562 15.734375 -16.9375 C 14.703125 -17.78125 13.53125 -18.203125 12.21875 -18.203125 Z M 12.21875 -18.203125 "/></g></g></g><g fill="#ffffff" fill-opacity="1"><g transform="translate(61.618104, 230.082803)"><g><path d="M 19.890625 0.65625 C 16.710938 0.65625 13.882812 0.257812 11.40625 -0.53125 C 8.925781 -1.320312 6.601562 -2.671875 4.4375 -4.578125 C 3.25 -5.640625 2.65625 -6.8125 2.65625 -8.09375 C 2.65625 -9.101562 3.03125 -9.992188 3.78125 -10.765625 C 4.53125 -11.546875 5.4375 -11.9375 6.5 -11.9375 C 7.34375 -11.9375 8.09375 -11.671875 8.75 -11.140625 C 10.519531 -9.679688 12.242188 -8.617188 13.921875 -7.953125 C 15.609375 -7.296875 17.597656 -6.96875 19.890625 -6.96875 C 22.367188 -6.96875 24.503906 -7.519531 26.296875 -8.625 C 28.085938 -9.726562 28.984375 -11.097656 28.984375 -12.734375 C 28.984375 -14.722656 28.097656 -16.28125 26.328125 -17.40625 C 24.554688 -18.53125 21.75 -19.378906 17.90625 -19.953125 C 8.21875 -21.367188 3.375 -25.878906 3.375 -33.484375 C 3.375 -36.273438 4.101562 -38.695312 5.5625 -40.75 C 7.03125 -42.800781 9.019531 -44.367188 11.53125 -45.453125 C 14.050781 -46.535156 16.859375 -47.078125 19.953125 -47.078125 C 22.742188 -47.078125 25.363281 -46.65625 27.8125 -45.8125 C 30.269531 -44.976562 32.316406 -43.875 33.953125 -42.5 C 35.234375 -41.488281 35.875 -40.316406 35.875 -38.984375 C 35.875 -37.972656 35.5 -37.078125 34.75 -36.296875 C 34 -35.523438 33.113281 -35.140625 32.09375 -35.140625 C 31.425781 -35.140625 30.832031 -35.34375 30.3125 -35.75 C 29.15625 -36.675781 27.546875 -37.523438 25.484375 -38.296875 C 23.429688 -39.066406 21.585938 -39.453125 19.953125 -39.453125 C 17.171875 -39.453125 15.015625 -38.929688 13.484375 -37.890625 C 11.960938 -36.859375 11.203125 -35.5 11.203125 -33.8125 C 11.203125 -31.914062 11.988281 -30.476562 13.5625 -29.5 C 15.132812 -28.53125 17.597656 -27.738281 20.953125 -27.125 C 24.753906 -26.457031 27.789062 -25.601562 30.0625 -24.5625 C 32.34375 -23.53125 34.054688 -22.117188 35.203125 -20.328125 C 36.359375 -18.535156 36.9375 -16.160156 36.9375 -13.203125 C 36.9375 -10.410156 36.148438 -7.960938 34.578125 -5.859375 C 33.015625 -3.765625 30.925781 -2.15625 28.3125 -1.03125 C 25.707031 0.09375 22.898438 0.65625 19.890625 0.65625 Z M 19.890625 0.65625 "/></g></g></g><g fill="#ffffff" fill-opacity="1"><g transform="translate(101.196209, 230.082803)"><g><path d="M 19.765625 -36.140625 C 23.515625 -36.140625 26.539062 -35.550781 28.84375 -34.375 C 31.144531 -33.207031 32.296875 -31.648438 32.296875 -29.703125 C 32.296875 -28.734375 32.003906 -27.882812 31.421875 -27.15625 C 30.847656 -26.425781 30.097656 -26.0625 29.171875 -26.0625 C 28.460938 -26.0625 27.890625 -26.160156 27.453125 -26.359375 C 27.015625 -26.554688 26.582031 -26.820312 26.15625 -27.15625 C 25.738281 -27.488281 25.332031 -27.765625 24.9375 -27.984375 C 24.488281 -28.203125 23.832031 -28.398438 22.96875 -28.578125 C 22.113281 -28.753906 21.421875 -28.84375 20.890625 -28.84375 C 17.578125 -28.84375 14.976562 -27.8125 13.09375 -25.75 C 11.21875 -23.695312 10.28125 -21.015625 10.28125 -17.703125 C 10.28125 -14.523438 11.226562 -11.882812 13.125 -9.78125 C 15.03125 -7.675781 17.460938 -6.625 20.421875 -6.625 C 22.585938 -6.625 24.203125 -6.890625 25.265625 -7.421875 C 25.523438 -7.554688 25.890625 -7.789062 26.359375 -8.125 C 26.828125 -8.457031 27.257812 -8.710938 27.65625 -8.890625 C 28.050781 -9.066406 28.535156 -9.15625 29.109375 -9.15625 C 30.210938 -9.15625 31.082031 -8.800781 31.71875 -8.09375 C 32.363281 -7.382812 32.6875 -6.476562 32.6875 -5.375 C 32.6875 -4.3125 32.066406 -3.316406 30.828125 -2.390625 C 29.597656 -1.460938 27.960938 -0.722656 25.921875 -0.171875 C 23.890625 0.378906 21.722656 0.65625 19.421875 0.65625 C 16.023438 0.65625 13.03125 -0.132812 10.4375 -1.71875 C 7.851562 -3.3125 5.851562 -5.507812 4.4375 -8.3125 C 3.03125 -11.125 2.328125 -14.253906 2.328125 -17.703125 C 2.328125 -21.285156 3.066406 -24.46875 4.546875 -27.25 C 6.023438 -30.039062 8.085938 -32.21875 10.734375 -33.78125 C 13.390625 -35.351562 16.398438 -36.140625 19.765625 -36.140625 Z M 19.765625 -36.140625 "/></g></g></g><g fill="#ffffff" fill-opacity="1"><g transform="translate(135.338113, 230.082803)"><g><path d="M 38.390625 -17.703125 C 38.390625 -14.171875 37.59375 -11 36 -8.1875 C 34.414062 -5.382812 32.238281 -3.207031 29.46875 -1.65625 C 26.707031 -0.113281 23.671875 0.65625 20.359375 0.65625 C 16.992188 0.65625 13.941406 -0.113281 11.203125 -1.65625 C 8.460938 -3.207031 6.296875 -5.382812 4.703125 -8.1875 C 3.117188 -11 2.328125 -14.171875 2.328125 -17.703125 C 2.328125 -21.242188 3.117188 -24.414062 4.703125 -27.21875 C 6.296875 -30.03125 8.460938 -32.21875 11.203125 -33.78125 C 13.941406 -35.351562 16.992188 -36.140625 20.359375 -36.140625 C 23.671875 -36.140625 26.707031 -35.351562 29.46875 -33.78125 C 32.238281 -32.21875 34.414062 -30.03125 36 -27.21875 C 37.59375 -24.414062 38.390625 -21.242188 38.390625 -17.703125 Z M 30.4375 -17.703125 C 30.4375 -19.867188 29.984375 -21.800781 29.078125 -23.5 C 28.171875 -25.207031 26.953125 -26.523438 25.421875 -27.453125 C 23.898438 -28.378906 22.210938 -28.84375 20.359375 -28.84375 C 18.503906 -28.84375 16.8125 -28.378906 15.28125 -27.453125 C 13.757812 -26.523438 12.546875 -25.207031 11.640625 -23.5 C 10.734375 -21.800781 10.28125 -19.867188 10.28125 -17.703125 C 10.28125 -15.535156 10.734375 -13.613281 11.640625 -11.9375 C 12.546875 -10.257812 13.757812 -8.953125 15.28125 -8.015625 C 16.8125 -7.085938 18.503906 -6.625 20.359375 -6.625 C 22.210938 -6.625 23.898438 -7.085938 25.421875 -8.015625 C 26.953125 -8.953125 28.171875 -10.257812 29.078125 -11.9375 C 29.984375 -13.613281 30.4375 -15.535156 30.4375 -17.703125 Z M 30.4375 -17.703125 "/></g></g></g><g fill="#ffffff" fill-opacity="1"><g transform="translate(176.043218, 230.082803)"><g><path d="M 30.640625 -35.484375 C 31.785156 -35.484375 32.734375 -35.09375 33.484375 -34.3125 C 34.234375 -33.539062 34.609375 -32.582031 34.609375 -31.4375 L 34.609375 -14.59375 C 34.609375 -9.8125 33.289062 -6.070312 30.65625 -3.375 C 28.03125 -0.6875 24.285156 0.65625 19.421875 0.65625 C 14.566406 0.65625 10.832031 -0.6875 8.21875 -3.375 C 5.613281 -6.070312 4.3125 -9.8125 4.3125 -14.59375 L 4.3125 -31.4375 C 4.3125 -32.582031 4.6875 -33.539062 5.4375 -34.3125 C 6.1875 -35.09375 7.140625 -35.484375 8.296875 -35.484375 C 9.441406 -35.484375 10.390625 -35.09375 11.140625 -34.3125 C 11.890625 -33.539062 12.265625 -32.582031 12.265625 -31.4375 L 12.265625 -14.59375 C 12.265625 -11.894531 12.859375 -9.890625 14.046875 -8.578125 C 15.242188 -7.273438 17.035156 -6.625 19.421875 -6.625 C 21.859375 -6.625 23.671875 -7.273438 24.859375 -8.578125 C 26.054688 -9.890625 26.65625 -11.894531 26.65625 -14.59375 L 26.65625 -31.4375 C 26.65625 -32.582031 27.03125 -33.539062 27.78125 -34.3125 C 28.53125 -35.09375 29.484375 -35.484375 30.640625 -35.484375 Z M 30.640625 -35.484375 "/></g></g></g><g fill="#ffffff" fill-opacity="1"><g transform="translate(214.958355, 230.082803)"><g><path d="M 21.421875 -7.5 C 22.035156 -7.5 22.597656 -7.195312 23.109375 -6.59375 C 23.617188 -6 23.875 -5.21875 23.875 -4.25 C 23.875 -3.050781 23.21875 -2.039062 21.90625 -1.21875 C 20.601562 -0.40625 19.132812 0 17.5 0 C 14.757812 0 12.453125 -0.582031 10.578125 -1.75 C 8.703125 -2.925781 7.765625 -5.414062 7.765625 -9.21875 L 7.765625 -27.515625 L 4.703125 -27.515625 C 3.640625 -27.515625 2.753906 -27.867188 2.046875 -28.578125 C 1.347656 -29.285156 1 -30.171875 1 -31.234375 C 1 -32.253906 1.347656 -33.101562 2.046875 -33.78125 C 2.753906 -34.46875 3.640625 -34.8125 4.703125 -34.8125 L 7.765625 -34.8125 L 7.765625 -39.0625 C 7.765625 -40.207031 8.148438 -41.164062 8.921875 -41.9375 C 9.691406 -42.71875 10.648438 -43.109375 11.796875 -43.109375 C 12.910156 -43.109375 13.84375 -42.71875 14.59375 -41.9375 C 15.34375 -41.164062 15.71875 -40.207031 15.71875 -39.0625 L 15.71875 -34.8125 L 20.421875 -34.8125 C 21.484375 -34.8125 22.367188 -34.457031 23.078125 -33.75 C 23.785156 -33.039062 24.140625 -32.15625 24.140625 -31.09375 C 24.140625 -30.082031 23.785156 -29.234375 23.078125 -28.546875 C 22.367188 -27.859375 21.484375 -27.515625 20.421875 -27.515625 L 15.71875 -27.515625 L 15.71875 -9.546875 C 15.71875 -8.617188 15.957031 -7.941406 16.4375 -7.515625 C 16.925781 -7.097656 17.59375 -6.890625 18.4375 -6.890625 C 18.789062 -6.890625 19.273438 -6.976562 19.890625 -7.15625 C 20.421875 -7.382812 20.929688 -7.5 21.421875 -7.5 Z M 21.421875 -7.5 "/></g></g></g></svg>