<svg xmlns="http://www.w3.org/2000/svg" xmlns:xlink="http://www.w3.org/1999/xlink" width="500" zoomAndPan="magnify" viewBox="0 0 375 374.999991" height="500" preserveAspectRatio="xMidYMid meet" version="1.0"><defs><g/><clipPath id="eb0023d0a4"><path d="M 16.8125 16.8125 L 358.1875 16.8125 L 358.1875 358.1875 L 16.8125 358.1875 Z M 16.8125 16.8125 " clip-rule="nonzero"/></clipPath><clipPath id="b696da4d38"><path d="M 187.5 16.8125 C 93.230469 16.8125 16.8125 93.230469 16.8125 187.5 C 16.8125 281.769531 93.230469 358.1875 187.5 358.1875 C 281.769531 358.1875 358.1875 281.769531 358.1875 187.5 C 358.1875 93.230469 281.769531 16.8125 187.5 16.8125 " clip-rule="nonzero"/></clipPath><clipPath id="ec1f4562ce"><path d="M 111 85 L 122 85 L 122 115 L 111 115 Z M 111 85 " clip-rule="nonzero"/></clipPath><clipPath id="f4f9a19b3f"><path d="M 76.511719 81.121094 L 218.039062 89.089844 L 211.714844 201.410156 L 70.1875 193.445312 Z M 76.511719 81.121094 " clip-rule="nonzero"/></clipPath><clipPath id="70fc31d83c"><path d="M 76.511719 81.121094 L 218.039062 89.089844 L 211.714844 201.410156 L 70.1875 193.445312 Z M 76.511719 81.121094 " clip-rule="nonzero"/></clipPath><clipPath id="797f50c5bc"><path d="M 163 87 L 174 87 L 174 115 L 163 115 Z M 163 87 " clip-rule="nonzero"/></clipPath><clipPath id="0272d1f51e"><path d="M 76.511719 81.121094 L 218.039062 89.089844 L 211.714844 201.410156 L 70.1875 193.445312 Z M 76.511719 81.121094 " clip-rule="nonzero"/></clipPath><clipPath id="6fff1959b7"><path d="M 76.511719 81.121094 L 218.039062 89.089844 L 211.714844 201.410156 L 70.1875 193.445312 Z M 76.511719 81.121094 " clip-rule="nonzero"/></clipPath><clipPath id="5d66d313f1"><path d="M 73 118 L 216 118 L 216 197 L 73 197 Z M 73 118 " clip-rule="nonzero"/></clipPath><clipPath id="ba3fd4edbe"><path d="M 76.511719 81.121094 L 218.039062 89.089844 L 211.714844 201.410156 L 70.1875 193.445312 Z M 76.511719 81.121094 " clip-rule="nonzero"/></clipPath><clipPath id="8d71e55fd6"><path d="M 76.511719 81.121094 L 218.039062 89.089844 L 211.714844 201.410156 L 70.1875 193.445312 Z M 76.511719 81.121094 " clip-rule="nonzero"/></clipPath></defs><g clip-path="url(#eb0023d0a4)"><g clip-path="url(#b696da4d38)"><path fill="#112cba" d="M 16.8125 16.8125 L 358.1875 16.8125 L 358.1875 358.1875 L 16.8125 358.1875 Z M 16.8125 16.8125 " fill-opacity="1" fill-rule="nonzero"/></g></g><g clip-path="url(#ec1f4562ce)"><g clip-path="url(#f4f9a19b3f)"><g clip-path="url(#70fc31d83c)"><path fill="#ffffff" d="M 112.628906 88.257812 C 111.753906 91.816406 111.957031 95.871094 111.796875 99.570312 C 111.628906 103.457031 111.558594 107.257812 111.675781 111.113281 C 111.804688 114.828125 118.054688 115.710938 119.027344 112.058594 C 120.171875 107.933594 120.824219 104.074219 120.964844 99.84375 C 121.054688 95.710938 121.160156 91.242188 119.796875 87.3125 C 119.257812 85.789062 117.386719 84.867188 115.882812 85.070312 C 114.089844 85.308594 113.054688 86.644531 112.628906 88.257812 Z M 112.628906 88.257812 " fill-opacity="1" fill-rule="nonzero"/></g></g></g><g clip-path="url(#797f50c5bc)"><g clip-path="url(#0272d1f51e)"><g clip-path="url(#6fff1959b7)"><path fill="#ffffff" d="M 164.789062 89.941406 C 163.191406 92.738281 163.523438 97.042969 163.492188 100.21875 C 163.425781 103.917969 163.664062 107.351562 164.425781 110.957031 C 165.445312 115.875 171.621094 115.5 172.839844 110.949219 C 173.867188 107.15625 174.113281 103.65625 173.902344 99.746094 C 173.714844 96.21875 173.613281 92.027344 171.523438 89.019531 C 169.65625 86.363281 166.125 87.5625 164.789062 89.941406 Z M 164.789062 89.941406 " fill-opacity="1" fill-rule="nonzero"/></g></g></g><g clip-path="url(#5d66d313f1)"><g clip-path="url(#ba3fd4edbe)"><g clip-path="url(#8d71e55fd6)"><path fill="#ffffff" d="M 73.136719 145.863281 C 72.585938 153.101562 75.84375 160.117188 79.542969 166.148438 C 83.199219 172.082031 87.996094 177.359375 93.476562 181.664062 C 103.929688 189.855469 117.007812 194.925781 130.203125 196.246094 C 143.585938 197.574219 157.5 195.566406 169.65625 189.707031 C 181.761719 183.890625 192.21875 174.898438 200.09375 163.984375 C 204.421875 157.96875 208.015625 151.335938 210.664062 144.410156 C 212.066406 140.832031 213.238281 137.09375 214.074219 133.339844 C 214.863281 129.628906 215.867188 125.402344 214.875 121.6875 C 213.921875 118.167969 209.730469 117.453125 207.910156 120.765625 C 206.460938 123.429688 206.148438 126.445312 205.355469 129.382812 C 204.570312 132.273438 203.734375 135.164062 202.707031 137.996094 C 200.769531 143.421875 198.261719 148.671875 195.152344 153.5 C 188.878906 163.304688 180.511719 171.929688 170.371094 177.808594 C 150.296875 189.386719 124.035156 189.640625 103.933594 177.824219 C 98.070312 174.363281 92.695312 169.875 88.375 164.675781 C 83.46875 158.765625 80.863281 152.074219 77.644531 145.203125 C 76.695312 143.269531 73.320312 143.417969 73.136719 145.863281 Z M 73.136719 145.863281 " fill-opacity="1" fill-rule="nonzero"/></g></g></g><g fill="#ffffff" fill-opacity="1"><g transform="translate(70.199993, 258.290784)"><g><path d="M 21.34375 0.828125 C 17.78125 0.828125 14.628906 0.21875 11.890625 -1 C 9.160156 -2.226562 7.003906 -3.988281 5.421875 -6.28125 C 3.847656 -8.582031 3.035156 -11.378906 2.984375 -14.671875 L 12.375 -14.671875 C 12.46875 -12.398438 13.289062 -10.488281 14.84375 -8.9375 C 16.394531 -7.382812 18.539062 -6.609375 21.28125 -6.609375 C 23.644531 -6.609375 25.519531 -7.175781 26.90625 -8.3125 C 28.300781 -9.445312 29 -10.960938 29 -12.859375 C 29 -14.859375 28.382812 -16.410156 27.15625 -17.515625 C 25.925781 -18.628906 24.289062 -19.535156 22.25 -20.234375 C 20.207031 -20.929688 18.03125 -21.675781 15.71875 -22.46875 C 11.957031 -23.757812 9.09375 -25.425781 7.125 -27.46875 C 5.15625 -29.507812 4.171875 -32.222656 4.171875 -35.609375 C 4.128906 -38.484375 4.8125 -40.953125 6.21875 -43.015625 C 7.632812 -45.078125 9.570312 -46.675781 12.03125 -47.8125 C 14.488281 -48.945312 17.316406 -49.515625 20.515625 -49.515625 C 23.765625 -49.515625 26.628906 -48.9375 29.109375 -47.78125 C 31.585938 -46.625 33.53125 -45 34.9375 -42.90625 C 36.351562 -40.820312 37.109375 -38.34375 37.203125 -35.46875 L 27.671875 -35.46875 C 27.628906 -37.1875 26.96875 -38.703125 25.6875 -40.015625 C 24.414062 -41.335938 22.644531 -42 20.375 -42 C 18.425781 -42.050781 16.789062 -41.578125 15.46875 -40.578125 C 14.144531 -39.578125 13.484375 -38.128906 13.484375 -36.234375 C 13.484375 -34.609375 13.992188 -33.320312 15.015625 -32.375 C 16.035156 -31.425781 17.425781 -30.625 19.1875 -29.96875 C 20.957031 -29.320312 22.976562 -28.628906 25.25 -27.890625 C 27.65625 -27.054688 29.851562 -26.082031 31.84375 -24.96875 C 33.84375 -23.851562 35.441406 -22.378906 36.640625 -20.546875 C 37.847656 -18.710938 38.453125 -16.359375 38.453125 -13.484375 C 38.453125 -10.941406 37.800781 -8.578125 36.5 -6.390625 C 35.207031 -4.210938 33.285156 -2.460938 30.734375 -1.140625 C 28.191406 0.171875 25.0625 0.828125 21.34375 0.828125 Z M 21.34375 0.828125 "/></g></g></g><g fill="#ffffff" fill-opacity="1"><g transform="translate(111.717802, 258.290784)"><g><path d="M 26.78125 0.828125 C 21.863281 0.828125 17.640625 -0.222656 14.109375 -2.328125 C 10.585938 -4.441406 7.875 -7.382812 5.96875 -11.15625 C 4.070312 -14.9375 3.125 -19.304688 3.125 -24.265625 C 3.125 -29.234375 4.070312 -33.617188 5.96875 -37.421875 C 7.875 -41.222656 10.585938 -44.1875 14.109375 -46.3125 C 17.640625 -48.445312 21.863281 -49.515625 26.78125 -49.515625 C 32.613281 -49.515625 37.394531 -48.066406 41.125 -45.171875 C 44.863281 -42.273438 47.195312 -38.207031 48.125 -32.96875 L 38.328125 -32.96875 C 37.722656 -35.601562 36.429688 -37.675781 34.453125 -39.1875 C 32.484375 -40.695312 29.878906 -41.453125 26.640625 -41.453125 C 22.140625 -41.453125 18.613281 -39.921875 16.0625 -36.859375 C 13.507812 -33.796875 12.234375 -29.597656 12.234375 -24.265625 C 12.234375 -18.941406 13.507812 -14.757812 16.0625 -11.71875 C 18.613281 -8.675781 22.140625 -7.15625 26.640625 -7.15625 C 29.878906 -7.15625 32.484375 -7.863281 34.453125 -9.28125 C 36.429688 -10.695312 37.722656 -12.65625 38.328125 -15.15625 L 48.125 -15.15625 C 47.195312 -10.15625 44.863281 -6.238281 41.125 -3.40625 C 37.394531 -0.582031 32.613281 0.828125 26.78125 0.828125 Z M 26.78125 0.828125 "/></g></g></g><g fill="#ffffff" fill-opacity="1"><g transform="translate(162.971785, 258.290784)"><g><path d="M 27.546875 0.828125 C 22.671875 0.828125 18.410156 -0.234375 14.765625 -2.359375 C 11.128906 -4.492188 8.28125 -7.453125 6.21875 -11.234375 C 4.15625 -15.015625 3.125 -19.382812 3.125 -24.34375 C 3.125 -29.300781 4.15625 -33.671875 6.21875 -37.453125 C 8.28125 -41.234375 11.128906 -44.1875 14.765625 -46.3125 C 18.410156 -48.445312 22.671875 -49.515625 27.546875 -49.515625 C 32.367188 -49.515625 36.609375 -48.445312 40.265625 -46.3125 C 43.929688 -44.1875 46.78125 -41.234375 48.8125 -37.453125 C 50.851562 -33.671875 51.875 -29.300781 51.875 -24.34375 C 51.875 -19.382812 50.851562 -15.015625 48.8125 -11.234375 C 46.78125 -7.453125 43.929688 -4.492188 40.265625 -2.359375 C 36.609375 -0.234375 32.367188 0.828125 27.546875 0.828125 Z M 27.546875 -7.15625 C 32.179688 -7.15625 35.875 -8.6875 38.625 -11.75 C 41.382812 -14.8125 42.765625 -19.007812 42.765625 -24.34375 C 42.765625 -29.675781 41.382812 -33.867188 38.625 -36.921875 C 35.875 -39.984375 32.179688 -41.515625 27.546875 -41.515625 C 22.898438 -41.515625 19.1875 -39.984375 16.40625 -36.921875 C 13.625 -33.867188 12.234375 -29.675781 12.234375 -24.34375 C 12.234375 -19.007812 13.625 -14.8125 16.40625 -11.75 C 19.1875 -8.6875 22.898438 -7.15625 27.546875 -7.15625 Z M 27.546875 -7.15625 "/></g></g></g><g fill="#ffffff" fill-opacity="1"><g transform="translate(217.981148, 258.290784)"><g><path d="M 23.5 0.828125 C 19.9375 0.828125 16.71875 0.125 13.84375 -1.28125 C 10.96875 -2.695312 8.679688 -4.84375 6.984375 -7.71875 C 5.296875 -10.59375 4.453125 -14.234375 4.453125 -18.640625 L 4.453125 -48.6875 L 13.359375 -48.6875 L 13.359375 -18.5625 C 13.359375 -14.757812 14.269531 -11.929688 16.09375 -10.078125 C 17.925781 -8.222656 20.46875 -7.296875 23.71875 -7.296875 C 26.914062 -7.296875 29.441406 -8.222656 31.296875 -10.078125 C 33.148438 -11.929688 34.078125 -14.757812 34.078125 -18.5625 L 34.078125 -48.6875 L 42.984375 -48.6875 L 42.984375 -18.640625 C 42.984375 -14.234375 42.097656 -10.59375 40.328125 -7.71875 C 38.566406 -4.84375 36.210938 -2.695312 33.265625 -1.28125 C 30.328125 0.125 27.070312 0.828125 23.5 0.828125 Z M 23.5 0.828125 "/></g></g></g><g fill="#ffffff" fill-opacity="1"><g transform="translate(265.340657, 258.290784)"><g><path d="M 16.0625 0 L 16.0625 -41.515625 L 1.875 -41.515625 L 1.875 -48.6875 L 39.21875 -48.6875 L 39.21875 -41.515625 L 24.96875 -41.515625 L 24.96875 0 Z M 16.0625 0 "/></g></g></g><g fill="#ffffff" fill-opacity="1"><g transform="translate(202.88857, 180.182494)"><g><path d="M 0.5625 0 L 6.78125 -17.03125 L 10.296875 -17.03125 L 16.515625 0 L 13.203125 0 L 11.84375 -3.9375 L 5.203125 -3.9375 L 3.8125 0 Z M 6.0625 -6.375 L 11 -6.375 L 8.515625 -13.453125 Z M 6.0625 -6.375 "/></g></g></g><g fill="#ffffff" fill-opacity="1"><g transform="translate(219.934349, 180.182494)"><g><path d="M 1.65625 0 L 1.65625 -17.03125 L 4.765625 -17.03125 L 4.765625 -10.140625 L 11.0625 -17.03125 L 14.90625 -17.03125 L 8.640625 -10.265625 L 15.078125 0 L 11.265625 0 L 6.390625 -7.875 L 4.765625 -6.109375 L 4.765625 0 Z M 1.65625 0 "/></g></g></g><g fill="#ffffff" fill-opacity="1"><g transform="translate(235.496825, 180.182494)"><g><path d="M 0.5625 0 L 6.78125 -17.03125 L 10.296875 -17.03125 L 16.515625 0 L 13.203125 0 L 11.84375 -3.9375 L 5.203125 -3.9375 L 3.8125 0 Z M 6.0625 -6.375 L 11 -6.375 L 8.515625 -13.453125 Z M 6.0625 -6.375 "/></g></g></g><g fill="#ffffff" fill-opacity="1"><g transform="translate(252.542604, 180.182494)"><g><path d="M 1.65625 0 L 1.65625 -17.03125 L 4.765625 -17.03125 L 12.765625 -5.03125 L 12.765625 -17.03125 L 15.890625 -17.03125 L 15.890625 0 L 12.765625 0 L 4.765625 -11.96875 L 4.765625 0 Z M 1.65625 0 "/></g></g></g><g fill="#ffffff" fill-opacity="1"><g transform="translate(270.074711, 180.182494)"><g><path d="M 5.625 0 L 5.625 -14.53125 L 0.65625 -14.53125 L 0.65625 -17.03125 L 13.71875 -17.03125 L 13.71875 -14.53125 L 8.734375 -14.53125 L 8.734375 0 Z M 5.625 0 "/></g></g></g><g fill="#ffffff" fill-opacity="1"><g transform="translate(284.445686, 180.182494)"><g><path d="M 1.65625 0 L 1.65625 -17.03125 L 4.765625 -17.03125 L 4.765625 0 Z M 1.65625 0 "/></g></g></g><g fill="#ffffff" fill-opacity="1"><g transform="translate(290.865203, 180.182494)"><g><path d="M 1.65625 0 L 1.65625 -17.03125 L 12.765625 -17.03125 L 12.765625 -14.53125 L 4.765625 -14.53125 L 4.765625 -9.859375 L 12.046875 -9.859375 L 12.046875 -7.421875 L 4.765625 -7.421875 L 4.765625 -2.5 L 12.765625 -2.5 L 12.765625 0 Z M 1.65625 0 "/></g></g></g></svg>