<svg xmlns="http://www.w3.org/2000/svg" xmlns:xlink="http://www.w3.org/1999/xlink" width="500" zoomAndPan="magnify" viewBox="0 0 375 374.999991" height="500" preserveAspectRatio="xMidYMid meet" version="1.0"><defs><g/><clipPath id="29a770f62c"><path d="M 16.8125 16.8125 L 358.1875 16.8125 L 358.1875 358.1875 L 16.8125 358.1875 Z M 16.8125 16.8125 " clip-rule="nonzero"/></clipPath><clipPath id="99bff343d7"><path d="M 187.5 16.8125 C 93.230469 16.8125 16.8125 93.230469 16.8125 187.5 C 16.8125 281.769531 93.230469 358.1875 187.5 358.1875 C 281.769531 358.1875 358.1875 281.769531 358.1875 187.5 C 358.1875 93.230469 281.769531 16.8125 187.5 16.8125 " clip-rule="nonzero"/></clipPath><clipPath id="b5dfcd9efd"><path d="M 111 85 L 122 85 L 122 115 L 111 115 Z M 111 85 " clip-rule="nonzero"/></clipPath><clipPath id="41a050f415"><path d="M 76.511719 81.121094 L 218.039062 89.089844 L 211.714844 201.410156 L 70.1875 193.445312 Z M 76.511719 81.121094 " clip-rule="nonzero"/></clipPath><clipPath id="e096f8f4ea"><path d="M 76.511719 81.121094 L 218.039062 89.089844 L 211.714844 201.410156 L 70.1875 193.445312 Z M 76.511719 81.121094 " clip-rule="nonzero"/></clipPath><clipPath id="33414dd601"><path d="M 163 87 L 174 87 L 174 115 L 163 115 Z M 163 87 " clip-rule="nonzero"/></clipPath><clipPath id="3dbbb437b6"><path d="M 76.511719 81.121094 L 218.039062 89.089844 L 211.714844 201.410156 L 70.1875 193.445312 Z M 76.511719 81.121094 " clip-rule="nonzero"/></clipPath><clipPath id="2668dce1f6"><path d="M 76.511719 81.121094 L 218.039062 89.089844 L 211.714844 201.410156 L 70.1875 193.445312 Z M 76.511719 81.121094 " clip-rule="nonzero"/></clipPath><clipPath id="4abb430bf6"><path d="M 73 118 L 216 118 L 216 197 L 73 197 Z M 73 118 " clip-rule="nonzero"/></clipPath><clipPath id="c0644072d6"><path d="M 76.511719 81.121094 L 218.039062 89.089844 L 211.714844 201.410156 L 70.1875 193.445312 Z M 76.511719 81.121094 " clip-rule="nonzero"/></clipPath><clipPath id="0976aea28d"><path d="M 76.511719 81.121094 L 218.039062 89.089844 L 211.714844 201.410156 L 70.1875 193.445312 Z M 76.511719 81.121094 " clip-rule="nonzero"/></clipPath><clipPath id="820c69ac15"><path d="M 90.519531 81.121094 L 203.019531 81.121094 L 203.019531 117.410156 L 90.519531 117.410156 Z M 90.519531 81.121094 " clip-rule="nonzero"/></clipPath><clipPath id="20d9df2c48"><path d="M 107.769531 81.121094 L 185.769531 81.121094 C 190.34375 81.121094 194.730469 82.9375 197.96875 86.175781 C 201.203125 89.410156 203.019531 93.796875 203.019531 98.371094 L 203.019531 100.160156 C 203.019531 104.734375 201.203125 109.121094 197.96875 112.355469 C 194.730469 115.59375 190.34375 117.410156 185.769531 117.410156 L 107.769531 117.410156 C 103.195312 117.410156 98.808594 115.59375 95.570312 112.355469 C 92.335938 109.121094 90.519531 104.734375 90.519531 100.160156 L 90.519531 98.371094 C 90.519531 93.796875 92.335938 89.410156 95.570312 86.175781 C 98.808594 82.9375 103.195312 81.121094 107.769531 81.121094 " clip-rule="nonzero"/></clipPath><clipPath id="a6d8581d70"><path d="M 90 79 L 182 79 L 182 139 L 90 139 Z M 90 79 " clip-rule="nonzero"/></clipPath><clipPath id="f730aef7a9"><path d="M 83.042969 87.222656 L 179.546875 73.332031 L 187.773438 130.492188 L 91.269531 144.386719 Z M 83.042969 87.222656 " clip-rule="nonzero"/></clipPath><clipPath id="9314a87fec"><path d="M 83.042969 87.222656 L 179.546875 73.332031 L 187.773438 130.492188 L 91.269531 144.386719 Z M 83.042969 87.222656 " clip-rule="nonzero"/></clipPath><clipPath id="d5e9ea091d"><path d="M 159 105 L 166 105 L 166 118 L 159 118 Z M 159 105 " clip-rule="nonzero"/></clipPath><clipPath id="ba14ebb367"><path d="M 158.761719 106.160156 L 164.195312 105.628906 L 165.296875 116.878906 L 159.863281 117.410156 Z M 158.761719 106.160156 " clip-rule="nonzero"/></clipPath><clipPath id="6aa7272279"><path d="M 161.480469 105.894531 C 162.980469 105.746094 164.316406 106.84375 164.460938 108.34375 L 165.03125 114.160156 C 165.175781 115.660156 164.082031 116.996094 162.578125 117.144531 C 161.078125 117.289062 159.746094 116.191406 159.597656 114.691406 L 159.027344 108.875 C 158.882812 107.375 159.980469 106.039062 161.480469 105.894531 " clip-rule="nonzero"/></clipPath><clipPath id="e59335d419"><path d="M 105 111 L 112 111 L 112 124 L 105 124 Z M 105 111 " clip-rule="nonzero"/></clipPath><clipPath id="1e3748fe7e"><path d="M 104.941406 112.050781 L 110.375 111.519531 L 111.476562 122.769531 L 106.042969 123.300781 Z M 104.941406 112.050781 " clip-rule="nonzero"/></clipPath><clipPath id="455b16b068"><path d="M 107.660156 111.785156 C 109.160156 111.636719 110.496094 112.734375 110.640625 114.234375 L 111.210938 120.050781 C 111.359375 121.550781 110.261719 122.886719 108.761719 123.035156 C 107.261719 123.179688 105.925781 122.082031 105.777344 120.582031 L 105.207031 114.765625 C 105.0625 113.265625 106.160156 111.929688 107.660156 111.785156 " clip-rule="nonzero"/></clipPath></defs><g clip-path="url(#29a770f62c)"><g clip-path="url(#99bff343d7)"><path fill="#112cba" d="M 16.8125 16.8125 L 358.1875 16.8125 L 358.1875 358.1875 L 16.8125 358.1875 Z M 16.8125 16.8125 " fill-opacity="1" fill-rule="nonzero"/></g></g><g clip-path="url(#b5dfcd9efd)"><g clip-path="url(#41a050f415)"><g clip-path="url(#e096f8f4ea)"><path fill="#ffffff" d="M 112.628906 88.257812 C 111.753906 91.816406 111.957031 95.871094 111.796875 99.570312 C 111.628906 103.457031 111.558594 107.257812 111.675781 111.113281 C 111.804688 114.828125 118.054688 115.710938 119.027344 112.058594 C 120.171875 107.933594 120.824219 104.074219 120.964844 99.84375 C 121.054688 95.710938 121.160156 91.242188 119.796875 87.3125 C 119.257812 85.789062 117.386719 84.867188 115.882812 85.070312 C 114.089844 85.308594 113.054688 86.644531 112.628906 88.257812 Z M 112.628906 88.257812 " fill-opacity="1" fill-rule="nonzero"/></g></g></g><g clip-path="url(#33414dd601)"><g clip-path="url(#3dbbb437b6)"><g clip-path="url(#2668dce1f6)"><path fill="#ffffff" d="M 164.789062 89.941406 C 163.191406 92.738281 163.523438 97.042969 163.492188 100.21875 C 163.425781 103.917969 163.664062 107.351562 164.425781 110.957031 C 165.445312 115.875 171.621094 115.5 172.839844 110.949219 C 173.867188 107.15625 174.113281 103.65625 173.902344 99.746094 C 173.714844 96.21875 173.613281 92.027344 171.523438 89.019531 C 169.65625 86.363281 166.125 87.5625 164.789062 89.941406 Z M 164.789062 89.941406 " fill-opacity="1" fill-rule="nonzero"/></g></g></g><g clip-path="url(#4abb430bf6)"><g clip-path="url(#c0644072d6)"><g clip-path="url(#0976aea28d)"><path fill="#ffffff" d="M 73.136719 145.863281 C 72.585938 153.101562 75.84375 160.117188 79.542969 166.148438 C 83.199219 172.082031 87.996094 177.359375 93.476562 181.664062 C 103.929688 189.855469 117.007812 194.925781 130.203125 196.246094 C 143.585938 197.574219 157.5 195.566406 169.65625 189.707031 C 181.761719 183.890625 192.21875 174.898438 200.09375 163.984375 C 204.421875 157.96875 208.015625 151.335938 210.664062 144.410156 C 212.066406 140.832031 213.238281 137.09375 214.074219 133.339844 C 214.863281 129.628906 215.867188 125.402344 214.875 121.6875 C 213.921875 118.167969 209.730469 117.453125 207.910156 120.765625 C 206.460938 123.429688 206.148438 126.445312 205.355469 129.382812 C 204.570312 132.273438 203.734375 135.164062 202.707031 137.996094 C 200.769531 143.421875 198.261719 148.671875 195.152344 153.5 C 188.878906 163.304688 180.511719 171.929688 170.371094 177.808594 C 150.296875 189.386719 124.035156 189.640625 103.933594 177.824219 C 98.070312 174.363281 92.695312 169.875 88.375 164.675781 C 83.46875 158.765625 80.863281 152.074219 77.644531 145.203125 C 76.695312 143.269531 73.320312 143.417969 73.136719 145.863281 Z M 73.136719 145.863281 " fill-opacity="1" fill-rule="nonzero"/></g></g></g><g clip-path="url(#820c69ac15)"><g clip-path="url(#20d9df2c48)"><path fill="#112cba" d="M 90.519531 81.121094 L 203.019531 81.121094 L 203.019531 117.410156 L 90.519531 117.410156 Z M 90.519531 81.121094 " fill-opacity="1" fill-rule="nonzero"/></g></g><g clip-path="url(#a6d8581d70)"><g clip-path="url(#f730aef7a9)"><g clip-path="url(#9314a87fec)"><path fill="#ffffff" d="M 178.507812 100.242188 L 173.125 93.40625 C 169.398438 88.652344 163.816406 86.101562 158.144531 86.015625 L 155.941406 83.21875 C 152.644531 79.011719 146.609375 78.074219 142.179688 81.070312 C 137.730469 84.070312 136.375 89.996094 139.082031 94.601562 L 140.410156 96.878906 C 140.195312 97.316406 139.996094 97.75 139.820312 98.199219 C 138.839844 95.632812 136.175781 94.003906 133.320312 94.417969 C 130.464844 94.828125 128.371094 97.15625 128.148438 99.878906 C 127.855469 99.496094 127.542969 99.136719 127.210938 98.777344 L 127.84375 96.21875 C 129.140625 91.039062 126.1875 85.730469 121.054688 84.109375 C 115.941406 82.488281 110.414062 85.089844 108.4375 90.054688 L 107.113281 93.359375 C 101.699219 95.042969 97.0625 99.0625 94.828125 104.675781 L 91.609375 112.75 C 88.246094 123.167969 94.007812 134.296875 104.46875 137.636719 C 114.949219 140.957031 126.167969 135.214844 129.550781 124.8125 L 131.050781 118.867188 C 132.191406 121.117188 134.671875 122.492188 137.308594 122.113281 C 139.941406 121.734375 141.953125 119.710938 142.394531 117.234375 L 145.511719 122.515625 C 151.675781 131.5625 164.074219 133.90625 173.1875 127.746094 C 182.304688 121.585938 184.6875 109.265625 178.507812 100.242188 Z M 126.433594 122.886719 C 125.902344 124.878906 124.988281 126.761719 123.695312 128.496094 C 122.449219 130.148438 120.839844 131.597656 119.046875 132.683594 C 117.203125 133.796875 115.140625 134.535156 112.9375 134.851562 C 110.777344 135.164062 108.585938 135.035156 106.449219 134.496094 C 104.445312 133.976562 102.546875 133.050781 100.808594 131.789062 C 99.148438 130.570312 97.71875 129.007812 96.601562 127.179688 C 95.480469 125.332031 94.738281 123.28125 94.429688 121.117188 C 94.117188 118.96875 94.25 116.792969 94.800781 114.667969 C 95.328125 112.675781 96.261719 110.789062 97.535156 109.058594 C 98.78125 107.40625 100.390625 105.957031 102.183594 104.871094 C 104.046875 103.753906 106.109375 103.015625 108.292969 102.699219 C 110.457031 102.386719 112.644531 102.515625 114.78125 103.054688 C 116.765625 103.5625 118.664062 104.488281 120.425781 105.765625 C 122.085938 107 123.539062 108.59375 124.632812 110.375 C 125.75 112.222656 126.492188 114.269531 126.804688 116.4375 C 127.09375 118.570312 126.960938 120.746094 126.433594 122.886719 Z M 136.925781 119.199219 C 135.234375 119.445312 133.65625 118.269531 133.414062 116.589844 C 133.171875 114.914062 134.355469 113.339844 136.046875 113.097656 C 137.738281 112.855469 139.316406 114.027344 139.558594 115.707031 C 139.800781 117.402344 138.617188 118.957031 136.925781 119.199219 Z M 177.84375 115.484375 C 177.316406 117.476562 176.398438 119.359375 175.109375 121.09375 C 173.859375 122.746094 172.25 124.195312 170.460938 125.28125 C 168.597656 126.398438 166.53125 127.136719 164.351562 127.453125 C 162.1875 127.765625 160 127.636719 157.859375 127.097656 C 155.855469 126.574219 153.960938 125.648438 152.21875 124.390625 C 150.558594 123.171875 149.128906 121.609375 148.011719 119.777344 C 146.894531 117.949219 146.15625 115.898438 145.839844 113.714844 C 145.53125 111.566406 145.664062 109.390625 146.210938 107.265625 C 146.742188 105.273438 147.675781 103.390625 148.949219 101.65625 C 150.195312 100.003906 151.804688 98.554688 153.597656 97.46875 C 155.457031 96.351562 157.523438 95.613281 159.703125 95.300781 C 161.867188 94.988281 164.058594 95.117188 166.195312 95.65625 C 168.199219 96.179688 170.09375 97.101562 171.835938 98.363281 C 173.496094 99.597656 174.953125 101.195312 176.042969 102.972656 C 177.164062 104.820312 177.902344 106.871094 178.214844 109.035156 C 178.503906 111.167969 178.371094 113.34375 177.84375 115.484375 Z M 177.84375 115.484375 " fill-opacity="1" fill-rule="nonzero"/></g></g></g><g fill="#ffffff" fill-opacity="1"><g transform="translate(70.199993, 258.290784)"><g><path d="M 21.34375 0.828125 C 17.78125 0.828125 14.628906 0.21875 11.890625 -1 C 9.160156 -2.226562 7.003906 -3.988281 5.421875 -6.28125 C 3.847656 -8.582031 3.035156 -11.378906 2.984375 -14.671875 L 12.375 -14.671875 C 12.46875 -12.398438 13.289062 -10.488281 14.84375 -8.9375 C 16.394531 -7.382812 18.539062 -6.609375 21.28125 -6.609375 C 23.644531 -6.609375 25.519531 -7.175781 26.90625 -8.3125 C 28.300781 -9.445312 29 -10.960938 29 -12.859375 C 29 -14.859375 28.382812 -16.410156 27.15625 -17.515625 C 25.925781 -18.628906 24.289062 -19.535156 22.25 -20.234375 C 20.207031 -20.929688 18.03125 -21.675781 15.71875 -22.46875 C 11.957031 -23.757812 9.09375 -25.425781 7.125 -27.46875 C 5.15625 -29.507812 4.171875 -32.222656 4.171875 -35.609375 C 4.128906 -38.484375 4.8125 -40.953125 6.21875 -43.015625 C 7.632812 -45.078125 9.570312 -46.675781 12.03125 -47.8125 C 14.488281 -48.945312 17.316406 -49.515625 20.515625 -49.515625 C 23.765625 -49.515625 26.628906 -48.9375 29.109375 -47.78125 C 31.585938 -46.625 33.53125 -45 34.9375 -42.90625 C 36.351562 -40.820312 37.109375 -38.34375 37.203125 -35.46875 L 27.671875 -35.46875 C 27.628906 -37.1875 26.96875 -38.703125 25.6875 -40.015625 C 24.414062 -41.335938 22.644531 -42 20.375 -42 C 18.425781 -42.050781 16.789062 -41.578125 15.46875 -40.578125 C 14.144531 -39.578125 13.484375 -38.128906 13.484375 -36.234375 C 13.484375 -34.609375 13.992188 -33.320312 15.015625 -32.375 C 16.035156 -31.425781 17.425781 -30.625 19.1875 -29.96875 C 20.957031 -29.320312 22.976562 -28.628906 25.25 -27.890625 C 27.65625 -27.054688 29.851562 -26.082031 31.84375 -24.96875 C 33.84375 -23.851562 35.441406 -22.378906 36.640625 -20.546875 C 37.847656 -18.710938 38.453125 -16.359375 38.453125 -13.484375 C 38.453125 -10.941406 37.800781 -8.578125 36.5 -6.390625 C 35.207031 -4.210938 33.285156 -2.460938 30.734375 -1.140625 C 28.191406 0.171875 25.0625 0.828125 21.34375 0.828125 Z M 21.34375 0.828125 "/></g></g></g><g fill="#ffffff" fill-opacity="1"><g transform="translate(111.717802, 258.290784)"><g><path d="M 26.78125 0.828125 C 21.863281 0.828125 17.640625 -0.222656 14.109375 -2.328125 C 10.585938 -4.441406 7.875 -7.382812 5.96875 -11.15625 C 4.070312 -14.9375 3.125 -19.304688 3.125 -24.265625 C 3.125 -29.234375 4.070312 -33.617188 5.96875 -37.421875 C 7.875 -41.222656 10.585938 -44.1875 14.109375 -46.3125 C 17.640625 -48.445312 21.863281 -49.515625 26.78125 -49.515625 C 32.613281 -49.515625 37.394531 -48.066406 41.125 -45.171875 C 44.863281 -42.273438 47.195312 -38.207031 48.125 -32.96875 L 38.328125 -32.96875 C 37.722656 -35.601562 36.429688 -37.675781 34.453125 -39.1875 C 32.484375 -40.695312 29.878906 -41.453125 26.640625 -41.453125 C 22.140625 -41.453125 18.613281 -39.921875 16.0625 -36.859375 C 13.507812 -33.796875 12.234375 -29.597656 12.234375 -24.265625 C 12.234375 -18.941406 13.507812 -14.757812 16.0625 -11.71875 C 18.613281 -8.675781 22.140625 -7.15625 26.640625 -7.15625 C 29.878906 -7.15625 32.484375 -7.863281 34.453125 -9.28125 C 36.429688 -10.695312 37.722656 -12.65625 38.328125 -15.15625 L 48.125 -15.15625 C 47.195312 -10.15625 44.863281 -6.238281 41.125 -3.40625 C 37.394531 -0.582031 32.613281 0.828125 26.78125 0.828125 Z M 26.78125 0.828125 "/></g></g></g><g fill="#ffffff" fill-opacity="1"><g transform="translate(162.971785, 258.290784)"><g><path d="M 27.546875 0.828125 C 22.671875 0.828125 18.410156 -0.234375 14.765625 -2.359375 C 11.128906 -4.492188 8.28125 -7.453125 6.21875 -11.234375 C 4.15625 -15.015625 3.125 -19.382812 3.125 -24.34375 C 3.125 -29.300781 4.15625 -33.671875 6.21875 -37.453125 C 8.28125 -41.234375 11.128906 -44.1875 14.765625 -46.3125 C 18.410156 -48.445312 22.671875 -49.515625 27.546875 -49.515625 C 32.367188 -49.515625 36.609375 -48.445312 40.265625 -46.3125 C 43.929688 -44.1875 46.78125 -41.234375 48.8125 -37.453125 C 50.851562 -33.671875 51.875 -29.300781 51.875 -24.34375 C 51.875 -19.382812 50.851562 -15.015625 48.8125 -11.234375 C 46.78125 -7.453125 43.929688 -4.492188 40.265625 -2.359375 C 36.609375 -0.234375 32.367188 0.828125 27.546875 0.828125 Z M 27.546875 -7.15625 C 32.179688 -7.15625 35.875 -8.6875 38.625 -11.75 C 41.382812 -14.8125 42.765625 -19.007812 42.765625 -24.34375 C 42.765625 -29.675781 41.382812 -33.867188 38.625 -36.921875 C 35.875 -39.984375 32.179688 -41.515625 27.546875 -41.515625 C 22.898438 -41.515625 19.1875 -39.984375 16.40625 -36.921875 C 13.625 -33.867188 12.234375 -29.675781 12.234375 -24.34375 C 12.234375 -19.007812 13.625 -14.8125 16.40625 -11.75 C 19.1875 -8.6875 22.898438 -7.15625 27.546875 -7.15625 Z M 27.546875 -7.15625 "/></g></g></g><g fill="#ffffff" fill-opacity="1"><g transform="translate(217.981148, 258.290784)"><g><path d="M 23.5 0.828125 C 19.9375 0.828125 16.71875 0.125 13.84375 -1.28125 C 10.96875 -2.695312 8.679688 -4.84375 6.984375 -7.71875 C 5.296875 -10.59375 4.453125 -14.234375 4.453125 -18.640625 L 4.453125 -48.6875 L 13.359375 -48.6875 L 13.359375 -18.5625 C 13.359375 -14.757812 14.269531 -11.929688 16.09375 -10.078125 C 17.925781 -8.222656 20.46875 -7.296875 23.71875 -7.296875 C 26.914062 -7.296875 29.441406 -8.222656 31.296875 -10.078125 C 33.148438 -11.929688 34.078125 -14.757812 34.078125 -18.5625 L 34.078125 -48.6875 L 42.984375 -48.6875 L 42.984375 -18.640625 C 42.984375 -14.234375 42.097656 -10.59375 40.328125 -7.71875 C 38.566406 -4.84375 36.210938 -2.695312 33.265625 -1.28125 C 30.328125 0.125 27.070312 0.828125 23.5 0.828125 Z M 23.5 0.828125 "/></g></g></g><g fill="#ffffff" fill-opacity="1"><g transform="translate(265.340657, 258.290784)"><g><path d="M 16.0625 0 L 16.0625 -41.515625 L 1.875 -41.515625 L 1.875 -48.6875 L 39.21875 -48.6875 L 39.21875 -41.515625 L 24.96875 -41.515625 L 24.96875 0 Z M 16.0625 0 "/></g></g></g><g clip-path="url(#d5e9ea091d)"><g clip-path="url(#ba14ebb367)"><g clip-path="url(#6aa7272279)"><path fill="#ffffff" d="M 158.761719 106.160156 L 164.195312 105.628906 L 165.296875 116.878906 L 159.863281 117.410156 Z M 158.761719 106.160156 " fill-opacity="1" fill-rule="nonzero"/></g></g></g><g fill="#ffffff" fill-opacity="1"><g transform="translate(202.88857, 180.182494)"><g><path d="M 0.5625 0 L 6.78125 -17.03125 L 10.296875 -17.03125 L 16.515625 0 L 13.203125 0 L 11.84375 -3.9375 L 5.203125 -3.9375 L 3.8125 0 Z M 6.0625 -6.375 L 11 -6.375 L 8.515625 -13.453125 Z M 6.0625 -6.375 "/></g></g></g><g fill="#ffffff" fill-opacity="1"><g transform="translate(219.934349, 180.182494)"><g><path d="M 1.65625 0 L 1.65625 -17.03125 L 4.765625 -17.03125 L 4.765625 -10.140625 L 11.0625 -17.03125 L 14.90625 -17.03125 L 8.640625 -10.265625 L 15.078125 0 L 11.265625 0 L 6.390625 -7.875 L 4.765625 -6.109375 L 4.765625 0 Z M 1.65625 0 "/></g></g></g><g fill="#ffffff" fill-opacity="1"><g transform="translate(235.496825, 180.182494)"><g><path d="M 0.5625 0 L 6.78125 -17.03125 L 10.296875 -17.03125 L 16.515625 0 L 13.203125 0 L 11.84375 -3.9375 L 5.203125 -3.9375 L 3.8125 0 Z M 6.0625 -6.375 L 11 -6.375 L 8.515625 -13.453125 Z M 6.0625 -6.375 "/></g></g></g><g fill="#ffffff" fill-opacity="1"><g transform="translate(252.542604, 180.182494)"><g><path d="M 1.65625 0 L 1.65625 -17.03125 L 4.765625 -17.03125 L 12.765625 -5.03125 L 12.765625 -17.03125 L 15.890625 -17.03125 L 15.890625 0 L 12.765625 0 L 4.765625 -11.96875 L 4.765625 0 Z M 1.65625 0 "/></g></g></g><g fill="#ffffff" fill-opacity="1"><g transform="translate(270.074711, 180.182494)"><g><path d="M 5.625 0 L 5.625 -14.53125 L 0.65625 -14.53125 L 0.65625 -17.03125 L 13.71875 -17.03125 L 13.71875 -14.53125 L 8.734375 -14.53125 L 8.734375 0 Z M 5.625 0 "/></g></g></g><g fill="#ffffff" fill-opacity="1"><g transform="translate(284.445686, 180.182494)"><g><path d="M 1.65625 0 L 1.65625 -17.03125 L 4.765625 -17.03125 L 4.765625 0 Z M 1.65625 0 "/></g></g></g><g fill="#ffffff" fill-opacity="1"><g transform="translate(290.865203, 180.182494)"><g><path d="M 1.65625 0 L 1.65625 -17.03125 L 12.765625 -17.03125 L 12.765625 -14.53125 L 4.765625 -14.53125 L 4.765625 -9.859375 L 12.046875 -9.859375 L 12.046875 -7.421875 L 4.765625 -7.421875 L 4.765625 -2.5 L 12.765625 -2.5 L 12.765625 0 Z M 1.65625 0 "/></g></g></g><g clip-path="url(#e59335d419)"><g clip-path="url(#1e3748fe7e)"><g clip-path="url(#455b16b068)"><path fill="#ffffff" d="M 104.941406 112.050781 L 110.375 111.519531 L 111.476562 122.769531 L 106.042969 123.300781 Z M 104.941406 112.050781 " fill-opacity="1" fill-rule="nonzero"/></g></g></g></svg>